<svg width="512" height="512" viewBox="0 0 512 512" fill="none" xmlns="http://www.w3.org/2000/svg">
<path d="M512 256C512 397.385 397.385 512 256 512C114.615 512 0 397.385 0 256C0 114.615 114.615 0 256 0C397.385 0 512 114.615 512 256Z" fill="white"/>
<path fill-rule="evenodd" clip-rule="evenodd" d="M512 256C512 397.385 397.385 512 256 512C114.615 512 0 397.385 0 256C0 114.615 114.615 0 256 0C397.385 0 512 114.615 512 256ZM477.867 256C477.867 378.534 378.534 477.867 256 477.867C208.618 477.867 164.705 463.014 128.663 437.71C140.181 441.814 152.704 443.733 166.494 443.733L170.201 443.265C190.124 443.265 209.584 440.456 228.581 434.371C247.578 428.285 265.185 419.859 281.401 409.092C297.618 398.326 310.591 384.282 320.785 366.493C330.978 348.705 336.075 329.044 336.075 307.51C336.075 304.233 336.075 301.893 335.612 300.488C365.265 297.211 391.675 295.339 415.305 294.403C421.792 292.998 425.035 291.594 425.035 289.722C425.035 283.636 403.259 280.827 359.705 280.827H332.368C329.125 269.124 319.858 249.463 304.568 221.844C289.278 194.225 281.865 173.159 281.865 158.648C281.865 140.391 290.668 124.475 307.811 110.431C324.955 96.3876 344.415 89.3658 365.728 89.3658C386.578 89.3658 396.772 94.9833 396.772 106.686C396.772 113.708 393.992 121.198 388.895 128.688C383.798 136.178 375.922 145.54 365.728 156.307C364.338 157.711 363.412 159.116 363.412 160.052C363.412 160.988 363.875 161.456 365.265 161.456C369.898 161.456 375.458 159.116 382.408 154.435C405.488 140.579 420.116 126.968 426.293 113.776C458.489 152.285 477.867 201.88 477.867 256ZM68.9939 375.439C68.5092 373.21 68.2668 371.164 68.2668 369.302C68.2668 349.173 88.1903 331.384 128.037 315.936C167.884 300.488 217.461 290.19 276.768 284.572C274.451 271.933 264.258 250.868 245.724 221.376C227.191 191.884 217.924 168.01 217.924 150.222C217.924 126.347 230.898 105.282 256.844 87.4934C282.791 69.7048 310.591 60.3424 340.708 59.8742C347.55 59.5921 354.182 59.7351 360.604 60.2905C329.44 43.5989 293.825 34.1333 256 34.1333C133.466 34.1333 34.1333 133.466 34.1333 256C34.1333 299.974 46.9265 340.96 68.9939 375.439ZM137.304 410.965H144.254L143.791 410.497C174.371 410.497 203.098 401.602 229.508 383.346C255.918 365.089 271.208 340.747 275.378 309.851C226.728 319.681 187.344 332.321 156.764 347.769C126.184 363.216 110.894 377.728 110.894 391.772C110.894 404.411 119.697 410.965 137.304 410.965Z" fill="black"/>
</svg>
