<svg fill="none" height="237" viewBox="0 0 601 237" width="601" xmlns="http://www.w3.org/2000/svg"><path clip-rule="evenodd" d="m411.018 157.641h.436c0 3.833 1.165 6.781 3.495 8.992s5.242 2.801 8.882 1.769c4.077-1.032 9.61-6.633 16.6-16.657 2.184-3.133 4.568-6.741 7.151-10.821-2.78 7.373-4.171 13.338-4.171 17.896l-.291.148c0 3.685 1.02 6.486 3.058 8.402 2.039 1.916 4.66 2.653 8.008 2.211 3.932-.442 10.193-6.191 18.784-17.394 1.675-2.184 3.383-4.497 5.124-6.941-5.764 12.39-10.863 23.696-15.249 33.916-.582 1.327-.436 2.801.583 4.275s2.33 2.653 4.077 3.538c1.747.884 3.494 1.326 5.387 1.326s3.349-.589 4.369-1.916l13.541-31.839 2.33-4.275c3.058 4.422 7.135 6.633 12.231 6.633 5.679 0 12.377-4.127 20.094-12.382 7.717-8.254 14.124-17.541 19.22-27.859 5.097-10.318 7.572-18.5729 7.426-24.7638-.145-3.5377-2.329-5.7488-6.552-6.7806-4.514-1.0318-10.338 1.7688-17.327 8.2546-6.99 6.4858-14.124 15.0348-21.55 25.5008-.874 1.327-1.457 1.916-1.893 1.769-.146-.147 0-.884.582-2.064 1.602-3.095 3.349-6.191 5.242-9.139s4.223-6.486 7.135-10.6128c2.912-4.1274 4.368-6.3384 4.514-6.6332l1.164-.2948c.146-.2948 0-.7371-.436-1.4741-.437-.737-1.165-1.474-2.33-2.3584-1.165-.8845-2.475-1.6215-3.786-2.3585-3.349-1.6214-5.97-1.6214-7.863 0-5.309 8.0615-11.517 19.2608-18.626 33.6808-15.442 21.965-25.516 34.765-30.221 38.4-1.31.884-2.184 1.179-2.621.737-.436-.443-.436-1.18-.145-2.211 2.475-8.402 6.552-18.131 12.377-29.186 5.824-11.056 10.047-18.721 12.813-22.995 2.767-4.2751 5.096-7.6654 6.844-10.1713.291-.2948.291-.737 0-1.474-.292-.7371-.874-1.4741-1.748-2.3585-.873-.8844-2.038-1.6215-3.349-2.3585-3.349-1.6214-6.115-1.7688-8.299-.4422-4.356 6.3459-9.255 14.5755-14.64 24.6315-.875 1.361-1.89 2.942-3.045 4.742-.806 1.256-1.681 2.619-2.624 4.087-5.678 8.845-10.92 16.51-15.58 22.995-4.659 6.486-8.154 10.761-10.629 12.677-1.311.884-2.184 1.179-2.621.737s-.437-1.179-.146-2.211c2.476-8.402 6.553-18.131 12.231-29.186 5.679-11.055 9.902-18.72 12.668-22.995l.574-.886c2.497-3.8597 4.5-6.9547 6.124-9.2849.728-1.6214.146-3.0955-1.893-4.5695-2.038-1.4741-4.659-2.2111-7.862-2.2111-4.66 0-10.193 3.0955-16.745 9.2865-6.553 6.191-13.105 13.856-19.803 22.995l-.437.59c-.582.589-1.019.737-1.31.442-.292-.295-.292-.737 0-1.327l.145-.442c10.193-20.3418 23.006-40.6835 38.295-61.1727.291-.2948.291-.737 0-1.474-.291-.7371-.873-1.4741-1.747-2.3585s-2.039-1.6214-3.349-2.3585c-3.349-1.6214-6.116-1.7688-8.3-.4422-10.338 13.7086-20.676 30.0704-31.014 48.9382-10.339 18.8677-18.201 35.6717-23.589 50.5597-.437 1.032-.437 2.064 0 3.095.874 2.506 3.203 4.422 6.989 5.749 3.786 1.179 5.97.737 6.553-1.179 3.349-8.107 8.882-17.983 16.599-29.628s15.289-20.784 22.569-27.4175l.001-.0002c.727-.7369 1.31-1.3265 1.747-1.6212 1.893-1.0319 1.164 1.1792-2.039 6.6329-5.096 8.55-10.047 18.278-14.852 29.186s-7.28 18.868-7.28 23.732zm-336.5869 17.984-1.1649.147c-5.2419 0-9.9013-.884-14.124-2.801-4.2226-1.916-7.426-4.127-9.7557-6.78-2.3298-2.654-4.0771-5.159-5.2419-7.665-1.1649-2.506-1.7473-4.57-1.7473-6.191 0-6.339 6.2611-11.94 18.7834-16.804 12.5224-4.865 28.1024-8.108 46.7403-9.876-.728-3.98-3.931-10.613-9.7557-19.9-5.8244-9.2864-8.7365-16.804-8.7365-22.4053 0-7.5176 4.077-14.1508 12.2312-19.7522 8.154-5.6013 16.89-8.5494 26.355-8.6968 7.135-.2948 13.542.8844 19.22 3.3903 5.679 2.5058 8.591 5.4539 8.737 8.8442.145 5.6014-4.805 11.4975-14.852 17.5411-2.184 1.474-3.932 2.2111-5.388 2.2111-.437 0-.582-.1474-.582-.4422 0-.2949.291-.7371.728-1.1793 3.203-3.3903 5.679-6.3384 7.28-8.6968 1.602-2.3585 2.476-4.717 2.476-6.928 0-3.6851-3.204-5.454-9.756-5.454-6.698 0-12.814 2.2111-18.201 6.6332-5.388 4.4221-8.154 9.4339-8.154 15.1826 0 4.5696 2.329 11.2028 7.135 19.8991 4.805 8.697 7.717 14.888 8.736 18.573h8.591c1.737 0 3.364.015 4.881.043.462-1.027.957-2.073 1.483-3.138 4.659-9.434 10.047-17.689 16.017-24.6166 5.97-6.928 10.92-10.7605 14.852-11.4975 1.747-.4422 2.766-.5896 3.203-.5896l.291.2948c3.204 0 5.97.737 8.446 2.2111 2.766-.5897 5.533.1474 8.154 2.3584 2.621 2.2111 3.931 4.5695 3.931 7.0754 0 7.223-2.766 16.214-8.3 26.975-5.533 10.76-12.085 19.9-19.657 27.565-7.571 7.665-13.978 10.907-19.366 9.876-1.164-.295-2.038-.737-2.766-1.18-3.058-1.326-5.679-3.39-7.863-6.043s-3.349-5.454-3.495-8.402c-.201-4.596.785-9.828 2.96-15.746-3.302.275-6.746.607-10.343 1.005.146.443.146 1.18.146 2.211 0 6.781-1.602 12.972-4.805 18.573-3.204 5.602-7.281 10.024-12.377 13.414s-10.6293 6.044-16.5992 7.96c-5.97 1.916-12.0855 2.801-18.3467 2.801zm-8.2997-10.319.1457.148h-2.1842c-5.5331 0-8.2996-2.064-8.2996-6.044 0-4.422 4.805-8.991 14.4152-13.856 9.6101-4.864 21.9868-8.844 37.2755-11.94-1.31 9.729-6.115 17.394-14.415 23.143-8.2997 5.749-17.3274 8.549-26.9376 8.549zm81.6436-16.362.437-.147c0-3.538 2.329-9.876 6.989-18.868 4.659-8.991 9.756-17.246 15.143-24.764 5.388-7.5172 9.028-11.3497 10.921-11.3497 1.31 0 1.893.737 1.893 2.0637 0 4.422-2.33 11.203-6.844 20.489-4.514 9.287-9.465 17.541-14.852 24.911-5.388 7.371-9.319 11.056-11.649 11.056-1.31 0-2.038-1.179-2.038-3.391zm128.272 20.784.292.443c3.64-4.275 10.629-16.657 20.967-37.294 10.338-20.636 17.91-33.9025 22.715-39.7987.291-.2948.291-.737 0-1.474s-.874-1.4741-1.747-2.3585c-.874-.8844-2.039-1.6214-3.349-2.3584-3.349-1.6215-6.116-1.7689-8.3-.4423-.437.7371-1.31 2.2111-2.475 4.4222-4.805-5.3066-10.338-7.3702-16.6-6.191-4.077.8844-9.027 4.2747-14.706 10.3183-5.679 6.0434-10.775 13.4134-15.143 22.1104-.641 1.275-1.234 2.535-1.781 3.778l-.035.055c-5.679 8.844-10.921 16.509-15.58 22.995-4.66 6.485-8.154 10.76-10.629 12.676-1.311.885-2.185 1.18-2.621.737-.437-.442-.437-1.179-.146-2.211 2.475-8.402 6.552-18.13 12.231-29.186 5.679-11.055 9.901-18.72 12.668-22.995l.572-.884.002-.002c2.497-3.8598 4.499-6.9545 6.124-9.2845.728-1.6215.146-3.0955-1.893-4.5696-2.038-1.474-4.659-2.211-7.863-2.211-8.591 0-20.531 10.4657-35.965 31.3971-.291.295-.582.442-1.019.59-.583-.148-.728-.737-.291-1.917 4.659-8.844 9.027-16.5089 13.104-23.1421.146-.4422.146-.8844 0-1.4741-.145-.5896-.728-1.3266-1.601-2.211-.874-.8845-2.039-1.6215-3.349-2.3585-3.349-1.6214-5.97-1.6214-8.009 0-1.893 2.9481-4.951 8.2546-9.028 15.9197-11.648 23.142-19.22 39.504-22.86 49.086-.437 1.474.437 3.095 2.621 4.864s4.368 2.801 6.698 3.095c2.33.295 3.786-.294 4.514-1.621h-.146c.039-.119.078-.226.114-.327.099-.273.177-.489.177-.705 3.349-7.518 9.319-17.394 17.91-29.628 8.591-12.235 16.017-21.374 22.278-27.565 1.165-1.179 2.039-1.7686 2.476-1.916 1.019-.2948.145 1.916-2.621 6.781-5.097 8.549-10.047 18.278-14.852 29.186-4.806 10.908-7.281 18.867-7.281 23.732 0 3.832 1.165 6.78 3.495 8.991 2.329 2.211 5.242 2.801 8.882 1.769 4.077-1.032 9.61-6.633 16.599-16.656 3.246-4.656 6.933-10.361 11.058-17.101-.337 2.121-.506 4.185-.506 6.193 0 5.011 1.602 8.402 4.951 10.318-9.465 4.569-14.124 10.171-14.124 16.804 0 2.506.582 4.864 1.747 7.075s2.767 3.98 4.951 5.16c2.184 1.179 4.659 1.768 7.426 1.768s5.97-1.031 9.465-3.095c3.494-2.064 6.989-5.159 10.483-9.287zm-9.901-32.134.437.295c-.146.59-.146 1.032 0 1.327.145.295.582.295 1.165 0 1.456-1.327 3.057-2.801 4.659-4.57s3.058-3.39 4.368-5.011c.253-.313.516-.636.789-.971v-.001c1.144-1.405 2.46-3.021 3.871-4.925.458-.618.897-1.207 1.312-1.765l.003-.004c1.168-1.566 2.156-2.893 2.907-3.979 1.02-1.474 2.476-3.538 4.369-6.191 1.289-1.808 2.309-3.274 3.058-4.35.35-.504.641-.923.873-1.252.728-1.031 1.893-2.8 3.639-5.452l.001-.002c.711-1.0784 1.301-1.9622 1.761-2.6511l.001-.0017c.67-1.0045 1.064-1.5941 1.151-1.769.436-1.0318.582-1.7688.291-2.211-.291-.4423-.728-.7371-1.456-.7371s-1.311 0-1.748.1474c-3.64.5897-9.464 6.191-17.473 16.8045-8.008 10.613-12.668 19.752-13.978 27.269zm-.437 23.29-.291.148c6.116-7.813 13.105-19.163 20.822-33.903.582-1.18.582-1.769.146-1.769-.728 0-1.602.737-2.621 2.064-3.64 5.011-6.116 8.402-7.572 10.318-.419.552-.863 1.14-1.334 1.765l-.002.004c-1.165 1.545-2.497 3.313-4.051 5.306-2.185 2.801-3.932 4.717-5.242 5.749-1.311 1.032-2.476 1.621-3.641 1.916-6.843 6.339-10.775 12.382-11.794 18.131-.582 3.095 0 4.569 1.602 4.569.437 0 1.019-.147 1.747-.589s1.456-1.032 2.33-1.769 1.602-1.474 2.33-2.211c.728-.737 1.601-1.622 2.475-2.801.511-.69.973-1.279 1.355-1.768l.001-.001.001-.001c.27-.345.501-.639.682-.883.245-.331.536-.755.873-1.246.263-.383.555-.808.874-1.26.728-1.032 1.165-1.621 1.31-1.769zm124.564-74.4388-.437.2948c1.165-1.9163 2.766-1.6215 4.951 1.0318 2.475 3.0955 3.349 6.3384 2.621 9.7287-.146 1.0318-.437 1.9162-.874 2.6535-9.465 17.836-18.929 32.134-28.394 42.894-9.464 10.761-16.453 16.657-20.967 17.836-2.767.737-5.388.148-7.863-1.769-2.475-1.916-3.64-5.011-3.495-9.286 0-1.622.291-3.833.728-6.486-8.882 10.466-15.871 16.362-20.967 17.689-2.33.589-4.66-.148-6.844-2.064s-3.203-5.012-3.058-9.286c.437-7.96 3.204-18.131 8.3-30.366 5.096-12.234 10.921-22.9948 17.473-32.2812 1.019-.8845 2.621-1.4741 4.659-1.6215 2.039-.1474 3.786 0 5.097.4422 1.456.4423 2.766 1.1793 3.931 2.0637s1.456 1.6214 1.019 2.3585c-4.077 5.3065-8.882 14.2983-14.415 26.9753-5.533 12.676-9.027 22.405-10.629 29.186-.146.884 0 1.621.437 2.211.436.589 1.019.442 1.747-.295 6.552-6.339 12.377-12.677 17.473-19.015 5.096-15.478 12.085-29.6285 20.968-42.3052 1.019-.8845 2.621-1.4741 4.659-1.6215 2.039-.1474 3.786 0 5.096.4422 1.311.4423 2.476 1.0319 3.495 1.9163s1.456 1.7688 1.165 2.6533c-3.204 8.402-7.281 15.6249-12.377 21.8159l-1.747 1.769c-4.805 10.023-8.446 20.784-10.921 32.429-.145 1.179 0 1.916.583 2.358.582.442 1.601.295 2.912-.442 6.552-6.339 12.959-15.478 19.366-27.417 6.406-11.94 11.794-23.4375 16.308-34.4928zm100.461-25.3535c-.437 2.6532 0 5.0117 1.456 6.928 1.456 1.9162 3.494 2.948 6.115 2.948s5.097-.8844 7.426-2.8006c2.33-1.9163 3.786-4.1273 4.223-6.7806.582-2.6533.146-4.8644-1.31-6.7806-1.457-1.9163-3.495-2.8007-6.116-2.8007s-5.096 1.0318-7.426 2.9481-3.786 4.2747-4.368 6.928zm42.441 39.7993c1.456-3.8328 1.456-5.6016.145-5.4542-.728.2948-1.747 1.0318-2.912 2.2111-4.659 4.7171-10.484 11.7921-17.327 21.2261-6.844 9.434-12.814 18.278-17.765 26.68.437 1.622 1.165 2.359 2.33 2.359 4.514 0 10.775-5.307 18.638-16.067 7.863-10.761 13.542-21.079 16.891-30.955z" fill="#fff" fill-rule="evenodd"/></svg>