<svg width="100" height="100" viewBox="0 0 100 100" fill="none" xmlns="http://www.w3.org/2000/svg">
<path fill-rule="evenodd" clip-rule="evenodd" d="M50 100C77.6142 100 100 77.6142 100 50C100 38.3181 95.9938 27.5719 89.2803 19.0604C88.0116 22.18 84.6107 25.4068 79.0777 28.6945C77.4944 29.75 76.2277 30.2778 75.1721 30.2778C74.8555 30.2778 74.7499 30.1722 74.7499 29.9611C74.7499 29.75 74.961 29.4334 75.2777 29.1167C77.5999 26.6889 79.3944 24.5778 80.5555 22.8889C81.7166 21.2 82.3499 19.5111 82.3499 17.9278C82.3499 15.2889 80.0277 14.0222 75.2777 14.0222C70.4221 14.0222 65.9888 15.6056 62.0833 18.7722C58.1777 21.9389 56.1721 25.5278 56.1721 29.6445C56.1721 32.9167 57.861 37.6667 61.3444 43.8945C64.8277 50.1222 66.9388 54.5556 67.6777 57.1945H70.7388H73.9055C83.8277 57.1945 88.7888 57.8278 88.7888 59.2C88.7888 59.6222 88.0499 59.9389 86.5722 60.2556C81.1888 60.4667 75.1721 60.8889 68.4166 61.6278C68.5221 61.9445 68.5221 62.4722 68.5221 63.2111C68.5221 68.0667 67.361 72.5 65.0388 76.5111C62.7166 80.5223 59.761 83.6889 56.0666 86.1167C52.3722 88.5445 48.361 90.4445 44.0333 91.8167C39.7055 93.1889 35.2721 93.8223 30.7333 93.8223L29.8888 93.9278C28.3749 93.9278 26.9279 93.8273 25.5413 93.6195C32.772 97.6827 41.1154 100 50 100ZM7.54891 76.4307C8.00246 72.1839 12.5287 68.4107 21.1277 65.1111C30.2055 61.6278 41.4999 59.3056 55.011 58.0389C54.4833 55.1889 52.161 50.4389 47.9388 43.7889C43.7166 37.1389 41.6055 31.7556 41.6055 27.7445C41.6055 22.3611 44.561 17.6111 50.4721 13.6C56.3833 9.58891 62.7166 7.4778 69.5777 7.37224C72.1342 7.26789 74.5618 7.42143 76.8604 7.8201C69.1019 2.86912 59.886 0 50 0C22.3858 0 0 22.3858 0 50C0 59.7041 2.7645 68.7625 7.54891 76.4307ZM23.2388 86.5389H24.8221L24.7166 86.4334C31.6833 86.4334 38.2277 84.4278 44.2444 80.3111C50.261 76.1945 53.7444 70.7056 54.6944 63.7389C43.611 65.9556 34.6388 68.8056 27.6721 72.2889C20.7055 75.7722 17.2221 79.0445 17.2221 82.2111C17.2221 85.0611 19.2277 86.5389 23.2388 86.5389Z" fill="white"/>
</svg>
