<svg width="760" height="754" viewBox="0 0 760 754" fill="none" xmlns="http://www.w3.org/2000/svg">
<g clip-path="url(#clip0)">
<line y1="-0.5" x2="620.329" y2="-0.5" transform="matrix(-0.707322 0.706891 -0.707322 -0.706891 596.047 158.06)" stroke="#676767" stroke-dasharray="6 4"/>
<line x1="66.3359" y1="376.878" x2="686.854" y2="376.878" stroke="#676767" stroke-dasharray="6 4"/>
<line x1="377.095" y1="67.3079" x2="377.095" y2="687.448" stroke="#676767" stroke-dasharray="6 4"/>
<line y1="-0.5" x2="620.329" y2="-0.5" transform="matrix(0.707322 0.706891 -0.707322 0.706891 157.144 158.06)" stroke="#676767" stroke-dasharray="6 4"/>
<line y1="-0.5" x2="620.329" y2="-0.5" transform="matrix(-0.707322 0.706891 -0.707322 -0.706891 596.047 158.06)" stroke="#676767" stroke-dasharray="6 4"/>
<line y1="-0.5" x2="620.463" y2="-0.5" transform="matrix(0.923962 0.382484 -0.382882 0.923797 89.7949 258.644)" stroke="#676767" stroke-dasharray="6 4"/>
<line y1="-0.5" x2="620.196" y2="-0.5" transform="matrix(-0.382883 0.923797 -0.923962 -0.382484 495.401 90.7522)" stroke="#676767" stroke-dasharray="6 4"/>
<line y1="-0.5" x2="620.196" y2="-0.5" transform="matrix(0.382882 0.923797 -0.923962 0.382484 257.789 90.7522)" stroke="#676767" stroke-dasharray="6 4"/>
<line y1="-0.5" x2="620.463" y2="-0.5" transform="matrix(-0.923962 0.382484 -0.382882 -0.923797 663.396 258.644)" stroke="#676767" stroke-dasharray="6 4"/>
<path fill-rule="evenodd" clip-rule="evenodd" d="M221.339 55.9641C221.339 43.8016 231.24 33.9062 243.41 33.9062C255.58 33.9062 265.481 43.8016 265.481 55.9641C265.481 68.1266 255.58 78.0219 243.41 78.0219C231.24 78.0219 221.339 68.1266 221.339 55.9641ZM251.088 65.5804C252.501 66.7246 254.446 64.2482 252.501 63.11C246.343 59.5053 239 59.3215 232.202 60.9049C230.61 61.1271 230.739 63.6371 232.378 63.6371C238.996 62.5814 244.703 61.7487 251.088 65.5804ZM253.441 60.0979C245.578 56.0256 240.099 55.9641 231.937 57.7282C229.886 57.7282 229.756 54.8322 231.585 54.2896C239.362 52.2649 248.05 52.8466 255.059 57.0219C256.653 58.1699 255.856 61.0505 253.441 60.0979ZM255.856 53.4937C258.054 55.152 260.19 51.2924 257.883 49.9655C250.065 45.3351 238.933 44.6832 230.261 47.2333C228.112 47.9399 229.064 51.5525 230.789 51.2886C239.88 49.0564 248.409 48.9984 255.856 53.4937Z" fill="white"/>
<path fill-rule="evenodd" clip-rule="evenodd" d="M394.525 15.478C397.011 16.0419 399.154 17.8483 399.604 20.3288C401.189 28.2522 401.102 36.0585 399.833 44.0144C399.379 46.6094 397.236 48.3012 394.754 48.8652C384.143 51.2762 368.118 51.0708 358.411 48.8652C355.929 48.3012 353.786 46.4948 353.332 44.0144C351.791 36.316 351.978 28.0555 353.222 20.3288C353.672 17.7337 355.818 16.0419 358.3 15.478C368.118 13.2481 384.143 13.1229 394.525 15.478ZM384.143 32.1716L370.375 24.2764V40.0668L384.143 32.1716Z" fill="white"/>
<path fill-rule="evenodd" clip-rule="evenodd" d="M53.6825 240.347C51.338 240.347 49.9707 238.563 49.9707 235.923C49.9707 230.727 54.6346 229.782 59.0475 229.782C59.0419 233.614 58.9448 240.347 53.6825 240.347ZM65.1985 245.975C64.7949 246.34 64.2097 246.363 63.7597 246.118C61.7281 244.435 61.3688 243.655 60.2565 242.053C54.6376 249.128 41.06 248.301 41.06 236.981C41.06 226.821 51.327 224.864 59.0436 224.9C59.0436 223.183 59.3178 221.173 58.304 219.682C56.1646 216.466 50.6723 218.35 49.9707 221.76C49.8664 222.31 49.4666 222.855 48.9104 222.884L42.9989 222.241C42.4987 222.133 41.9406 221.727 42.0874 220.967C43.447 213.795 49.9282 211.629 55.7335 211.629C58.7018 211.629 62.4893 212.523 64.9223 214.667C68.984 218.247 67.261 229.782 67.6106 234.665C67.6106 237.523 68.8003 238.776 69.9126 240.318C70.3066 240.872 70.3897 241.534 69.8933 241.937C68.6438 242.981 66.4287 244.904 65.2139 245.988L65.1985 245.975ZM72.0718 249.812C59.9975 256.276 45.3675 254.945 34.347 246.868C33.812 246.479 33.418 247.166 33.8622 247.671C43.602 259.054 61.2838 261.873 72.7612 251.207C73.5453 250.48 72.8732 249.383 72.0718 249.812ZM73.3657 254.089C73.19 254.527 73.5666 254.706 73.9644 254.373C76.5503 252.211 77.2185 247.683 76.6894 247.031C76.1641 246.382 71.645 245.822 68.8872 247.758C68.4623 248.055 68.5357 248.467 69.0069 248.409C70.5615 248.223 74.0185 247.806 74.6326 248.598C75.2487 249.389 73.947 252.639 73.3657 254.089Z" fill="white"/>
<path d="M30.0127 351.539C17.8201 351.539 7.94141 361.412 7.94141 373.597C7.94141 385.782 17.8201 395.655 30.0127 395.655C42.2053 395.655 52.084 385.782 52.084 373.597C52.084 361.412 42.2053 351.539 30.0127 351.539ZM34.3024 380.543H18.1939L25.7319 366.659H41.8404L34.3024 380.543Z" fill="white"/>
<path fill-rule="evenodd" clip-rule="evenodd" d="M700.886 232.822C706.98 232.822 711.936 237.775 711.936 243.865C711.936 249.955 706.98 254.909 700.886 254.909C694.792 254.909 689.836 249.955 689.836 243.865C689.836 237.775 694.792 232.822 700.886 232.822ZM696.673 249.923L706.943 243.606L696.673 237.816V249.923Z" fill="white"/>
<path fill-rule="evenodd" clip-rule="evenodd" d="M724.061 243.865C724.061 256.657 713.685 267.026 700.886 267.026C688.087 267.026 677.711 256.657 677.711 243.865C677.711 231.074 688.087 220.705 700.886 220.705C713.685 220.705 724.061 231.074 724.061 243.865ZM700.886 231.759C694.194 231.759 688.772 237.178 688.772 243.865C688.772 250.553 694.194 255.972 700.886 255.972C707.578 255.972 713 250.553 713 243.865C713 237.178 707.578 231.759 700.886 231.759Z" fill="white"/>
<g clip-path="url(#clip1)">
<path d="M689.435 528.002V512.259L678.908 484.024H684.2L691.958 505.795L700.882 479.475H705.747L694.3 512.439V528.002H689.435Z" fill="white"/>
</g>
<path d="M636.076 639.236C636.829 639.237 637.3 638.334 636.924 637.612L617.396 600.074C617.02 599.352 616.079 599.351 615.703 600.073L601.918 626.49C601.541 627.212 602.011 628.115 602.764 628.116L610.318 628.122C610.667 628.122 610.99 627.915 611.165 627.58L615.692 618.906C616.069 618.183 617.009 618.184 617.385 618.907L622.212 628.185C622.587 628.908 622.117 629.81 621.364 629.809L612.477 629.803C612.128 629.803 611.805 630.009 611.63 630.344L607.849 637.591C607.472 638.313 607.942 639.216 608.694 639.216L636.076 639.236Z" fill="white"/>
<path fill-rule="evenodd" clip-rule="evenodd" d="M510.095 709.606C504.948 709.606 497.183 710.607 495.558 704.114C495.026 700.747 496.967 692.217 498.04 687.282C500.043 676.073 513.597 678.247 521.973 678.247C520.288 690.037 518.122 701.869 515.591 713.504C514.527 718.996 510.095 721.654 505.841 722.185C501.236 722.76 496.158 722.362 491.481 722.362H491.304C491.304 722.185 491.304 722.185 491.304 722.008C492.367 720.236 493.431 718.287 494.495 716.516C494.672 716.339 495.204 716.161 495.558 716.161C498.749 716.161 502.118 716.161 505.309 716.161C509.242 716.161 509.653 712.701 510.095 709.606ZM510.095 703.582C510.982 703.582 511.159 703.405 511.336 702.519C512.223 697.558 513.109 692.598 513.995 687.637C514.652 684.026 510.487 684.448 508.145 684.448C506.018 684.448 504.6 685.688 504.068 687.814C503.402 692.138 502.483 696.43 501.763 700.747C501.586 702.165 502.472 703.228 503.891 703.405C505.937 703.661 508.062 703.176 510.095 703.582Z" fill="white"/>
<path d="M397.768 718.073C397.008 710.123 389.861 703.897 381.495 703.897H361.146V745.807H371.629C373.074 745.807 374.25 744.634 374.25 743.188V735.33H382.113C386.535 735.33 390.778 733.454 393.75 730.183C396.77 726.866 398.196 722.565 397.768 718.073Z" fill="white"/>
<path fill-rule="evenodd" clip-rule="evenodd" d="M223.709 710.829C223.044 710.701 223 711.38 223 711.841C223 718.022 227.835 717.718 233.214 717.699C233.76 717.697 234.033 717.052 233.719 716.61C230.973 712.989 227.216 711.905 223.709 710.829ZM249.163 685.936C248.113 685.936 241.663 685.462 241.861 686.669C244.099 700.258 238.47 713.53 237.281 716.131C236.485 718.12 238.235 706.824 228.275 686.306C225.627 685.274 223 687.914 223 691.694C223 692.766 223 695.493 223 696.238C232.171 702.755 234.909 711.823 235.602 716.955C235.736 717.951 236.034 717.699 237.354 717.699C238.488 717.699 238.654 717.787 238.878 717.026C240.261 712.347 244.514 703.32 254.883 697.937C254.883 696.878 254.883 692.908 254.883 691.694C254.883 688.254 252.551 685.936 249.163 685.936ZM257.421 715.899C255.454 721.278 249.499 720.876 244.734 720.876C238.518 720.876 230.042 720.876 224.807 720.225C219.419 718.27 219.81 712.353 219.81 707.587V691.694C220.11 689.686 219.81 685.223 224.807 683.409C227.569 682.407 246.595 683.069 249.906 683.069C249.906 683.069 255.424 683.068 257.421 687.736C258.734 692.995 257.73 715.053 257.421 715.899ZM260.941 688.582C259.838 680.862 252.718 679.759 249.906 679.759C242.873 679.759 226.474 679.316 223.177 680.513C220.565 681.461 218.507 683.511 217.555 686.113C216.248 689.685 216.799 701.494 216.799 708.495C216.799 715.495 216.774 720.799 223.177 723.121C227.417 724.659 249.906 723.876 252.113 723.875C257.421 723.121 259.377 720.124 260.328 717.521C261.085 715.138 261.085 712.923 261.085 708.495C261.085 701.494 261.157 690.089 260.941 688.582ZM254.206 709.743C249.81 711.208 245.19 712.586 241.488 716.549C240.934 717.217 241.638 717.699 241.943 717.699C247.401 717.699 254.883 718.967 254.883 711.841C254.883 711.37 255.197 709.451 254.206 709.743Z" fill="white"/>
<path d="M98.7232 620.007C98.7232 620.007 99.8158 619.825 100.281 620.29C100.726 620.755 100.423 621.726 99.8361 621.746C99.2291 621.766 98.6827 621.867 98.2781 621.463C97.8488 620.973 98.0932 620.174 98.7232 620.007ZM110.621 626.599C110.52 626.619 110.398 626.559 110.297 626.478C109.508 625.406 109.225 621.685 108.86 621.463C108.496 621.24 107.141 623.525 104.429 623.283C103.316 623.182 102.163 622.454 101.495 621.948C101.556 621.119 101.556 619.137 103.235 619.784C104.267 620.169 106.007 621.24 107.545 619.319C109.245 617.196 110.176 617.823 110.722 618.288C111.288 618.733 110.924 621.139 111.754 620.472C112.583 619.805 115.962 615.639 115.962 615.639C115.962 615.639 118.573 613.03 118.977 615.76C119.382 618.51 121.082 621.564 121.547 621.463C121.992 621.382 127.253 610.806 128.002 610.118C128.75 609.431 131.3 609.532 131.178 611.271C131.057 613.03 130.794 623.91 130.794 623.91C130.794 623.91 130.49 626.983 130.976 625.345C132.966 618.583 135.351 611.942 137.289 605.164C137.605 604.057 140.899 605.011 141.417 605.528C141.801 606.115 142.044 607.166 141.801 609.047C141.194 613.718 140.729 623.343 140.729 623.343C140.729 623.343 140.628 623.808 141.619 621.786C141.66 621.625 141.761 621.584 141.923 621.422C142.76 620.383 145.163 619.856 146.354 620.613C146.799 621.281 146.536 623.748 146.536 623.748C145.605 623.829 143.825 624.334 143.197 624.415C142.57 624.516 141.619 628.561 140.284 628.156C138.948 627.731 135.974 625.891 135.974 625.649C135.974 624.386 136.277 623.129 136.277 621.867C136.338 621.321 136.298 621.079 136.035 621.625C133.858 626.172 133.37 630.067 130.632 637.276C130.369 637.66 129.985 637.883 129.458 637.741C128.143 637.337 126.504 635.557 126.484 635.112C126.444 632.605 126.606 619.137 125.998 620.249C125.351 621.402 120.475 629.39 120.475 629.39C120.094 629.485 119.384 629.32 119.22 628.945C117.976 625.005 118.502 626.494 118.067 625.305C117.52 623.485 116.934 621.625 116.833 621.422C116.65 621.018 116.387 621.18 116.124 621.422C115.032 622.332 112.725 626.377 110.621 626.599Z" fill="white"/>
<path d="M51.9595 499.827C49.8176 496.538 46.106 494.348 41.8928 494.348C35.2624 494.348 29.8867 499.734 29.8867 506.381C29.8867 510.119 31.9093 513.788 34.5791 515.996C34.6893 516.127 41.398 522.329 47.3107 527.79V518.967C47.3107 512.945 56.4984 512.99 56.4984 518.967V527.866L68.5794 516.453C71.54 514.05 74.0293 510.599 74.0293 506.381C74.0293 499.734 68.6556 494.348 62.0221 494.348C57.8422 494.348 54.1095 496.577 51.9595 499.827ZM39.9986 515.944C36.4134 512.76 34.5954 509.436 34.5954 506.064C34.5954 503.144 36.1985 499.932 38.6991 498.359C39.6086 497.789 40.4918 499.203 39.5833 499.773C37.5594 501.044 36.2589 503.707 36.2589 506.064C36.2589 508.937 37.8887 511.842 41.1022 514.696C41.9174 515.422 40.7618 516.623 39.9986 515.944ZM62.8146 514.696C66.0278 511.842 67.6577 508.937 67.6577 506.064C67.6577 503.707 66.3572 501.044 64.3334 499.773C63.4249 499.204 64.3071 497.79 65.2177 498.359C67.7178 499.932 69.3207 503.145 69.3207 506.064C69.3207 509.436 67.5031 512.76 63.9182 515.944C63.115 516.66 62.0114 515.409 62.8146 514.696ZM45.3925 513.1C40.6498 510.438 39.7186 503.197 44.9127 500.458C45.8633 499.955 46.6366 501.434 45.687 501.934C41.6436 504.067 42.5908 509.617 46.2055 511.645C47.1417 512.169 46.3322 513.622 45.3925 513.1ZM57.7108 511.645C61.3255 509.617 62.2726 504.066 58.229 501.934C57.2789 501.433 58.0528 499.957 59.0043 500.458C64.1988 503.198 63.2658 510.438 58.5233 513.1C57.639 513.592 56.7561 512.179 57.7108 511.645ZM48.3816 507.036C48.3816 505.04 49.9979 503.425 51.9861 503.425C53.981 503.425 55.5936 505.04 55.5936 507.036C55.5936 509.032 53.981 510.649 51.9861 510.649C49.9979 510.649 48.3816 509.032 48.3816 507.036Z" fill="white"/>
<path fill-rule="evenodd" clip-rule="evenodd" d="M501.759 46.4491C507.923 37.1496 522.036 41.7097 522.947 52.515C534.689 51.2057 535.816 68.8516 524.536 68.8516H501.759V46.4491ZM495.402 47.0006C496.039 46.8886 496.78 46.7938 497.521 46.7938V68.8516H495.402V47.0006ZM498.58 46.7938V68.8516H500.699V47.3452C500.062 47.1255 499.321 46.9058 498.58 46.7938ZM492.224 48.4481C492.861 48.0087 493.602 47.677 494.343 47.3452V68.8516H492.224V48.4481ZM491.164 49.3442C490.316 50.1154 489.575 51.102 489.045 52.2049V68.8516H491.164V49.3442ZM485.867 53.5145C486.491 53.2924 487.375 53.2998 487.986 53.5145V68.8516C487.317 68.8516 486.507 68.9732 485.867 68.7482V53.5145ZM484.808 53.7558C484.067 53.9755 483.326 54.3072 482.689 54.8587V67.4041C483.326 67.8435 484.067 68.2873 484.808 68.507V53.7558ZM481.63 66.5425V55.7203C478.868 58.8383 478.868 63.4245 481.63 66.5425Z" fill="white"/>
<path d="M603.41 117.726C601.155 119.932 595.815 125.293 594.533 126.583C597.478 129.513 600.41 132.457 603.355 135.386C606.286 132.47 609.204 129.527 612.135 126.611C609.983 124.343 604.835 119.171 603.41 117.726Z" fill="white"/>
<path d="M620.971 117.726C618.081 120.71 615.053 123.599 612.177 126.597C615.149 129.499 618.053 132.47 621.012 135.386C623.342 133.068 625.433 130.961 629.847 126.515C628.608 125.306 623.226 119.932 620.971 117.726Z" fill="white"/>
<path d="M638.642 117.726C640.519 119.588 644.194 123.241 647.504 126.611C644.532 129.499 641.655 132.498 638.669 135.386C636.47 133.188 634.262 130.961 629.861 126.515C632.827 123.632 635.785 120.718 638.642 117.726Z" fill="white"/>
<path d="M612.218 144.271C615.158 147.168 617.962 150.251 621.026 153.019C625.433 148.607 623.226 150.813 629.847 144.175C627.409 141.772 623.226 137.578 620.984 135.4C618.445 137.949 618.812 137.578 612.218 144.271Z" fill="white"/>
<path fill-rule="evenodd" clip-rule="evenodd" d="M747.374 357.525V355.131H756.954V357.525H747.374ZM725.817 361.115V358.722H735.398V361.115H725.817ZM747.374 358.722V361.115H756.954V358.722H747.374ZM725.817 364.706V362.312H735.398V364.706H725.817ZM747.374 362.312V364.706H756.954V362.312H747.374ZM704.26 368.297V365.903H713.841V368.297H704.26ZM725.817 365.903V368.297H735.398V365.903H725.817ZM736.595 368.297V365.903H746.176V368.297H736.595ZM747.374 365.903V368.297H756.954V365.903H747.374ZM704.26 371.887V369.494H713.841V371.887H704.26ZM725.817 369.494V371.887H735.398V369.494H725.817ZM736.595 371.887V369.494H746.176V371.887H736.595ZM747.374 369.494V371.887H756.954V369.494H747.374ZM704.26 375.478V373.084H713.841V375.478H704.26ZM715.038 373.084V375.478H724.619V373.084H715.038ZM725.817 375.478V373.084H735.398V375.478H725.817ZM736.595 373.084V375.478H746.176V373.084H736.595ZM747.374 375.478V373.084H756.954V375.478H747.374ZM704.26 376.675V379.069H713.841V376.675H704.26ZM715.038 379.069V376.675H724.619V379.069H715.038ZM725.817 376.675V379.069H735.398V376.675H725.817ZM736.595 379.069V376.675H746.176V379.069H736.595ZM747.374 376.675V379.069H756.954V376.675H747.374ZM704.26 382.659V380.266H713.841V382.659H704.26ZM715.038 380.266V382.659H724.619V380.266H715.038ZM725.817 382.659V380.266H735.398V382.659H725.817ZM736.595 380.266V382.659H746.176V380.266H736.595ZM747.374 382.659V380.266H756.954V382.659H747.374Z" fill="white"/>
<path fill-rule="evenodd" clip-rule="evenodd" d="M130.802 110.971C136.341 111.145 140.987 105.122 140.209 99.8276C135.036 100.182 129.81 105.614 130.802 110.971ZM148.37 139.429C149.772 137.303 150.291 136.222 151.38 133.811C143.475 130.825 142.201 119.653 150.028 115.372C147.637 112.393 144.286 110.672 141.127 110.672C136.936 110.672 135.171 112.663 132.268 112.663C129.273 112.663 126.996 110.679 123.381 110.679C119.823 110.679 116.038 112.841 113.647 116.524C110.267 121.715 110.844 131.479 116.315 139.806C118.272 142.771 120.884 146.12 124.292 146.149C125.706 146.162 126.649 145.744 127.668 145.291C130.739 143.928 133.867 143.879 136.933 145.281C137.924 145.734 138.844 146.155 140.244 146.142C143.66 146.12 146.421 142.408 148.37 139.429Z" fill="white"/>
<g filter="url(#filter0_d)">
<rect width="185.168" height="379.538" rx="24" transform="matrix(0.999976 0.00697701 -0.00698552 0.999976 285.03 186.798)" fill="black"/>
<path d="M418.972 376.622C418.972 400.012 399.999 418.973 376.595 418.973C353.191 418.973 334.218 400.012 334.218 376.622C334.218 353.232 353.191 334.271 376.595 334.271C399.999 334.271 418.972 353.232 418.972 376.622Z" fill="white"/>
<path fill-rule="evenodd" clip-rule="evenodd" d="M418.972 376.622C418.972 400.012 399.999 418.973 376.595 418.973C353.191 418.973 334.218 400.012 334.218 376.622C334.218 353.232 353.191 334.271 376.595 334.271C399.999 334.271 418.972 353.232 418.972 376.622ZM413.321 376.622C413.321 396.893 396.878 413.326 376.595 413.326C368.751 413.326 361.482 410.869 355.516 406.683C357.423 407.362 359.496 407.679 361.778 407.679L362.392 407.602C365.69 407.602 368.911 407.137 372.056 406.13C375.2 405.124 378.115 403.73 380.799 401.948C383.484 400.167 385.631 397.844 387.319 394.901C389.006 391.958 389.85 388.706 389.85 385.143C389.85 384.601 389.85 384.214 389.773 383.982C394.682 383.44 399.054 383.13 402.965 382.975C404.039 382.743 404.576 382.51 404.576 382.2C404.576 381.194 400.971 380.729 393.761 380.729L389.236 380.729C388.699 378.793 387.165 375.54 384.634 370.971C382.103 366.402 380.876 362.917 380.876 360.516C380.876 357.496 382.333 354.863 385.171 352.54C388.009 350.217 391.23 349.055 394.758 349.055C398.21 349.055 399.897 349.984 399.897 351.92C399.897 353.082 399.437 354.321 398.593 355.56C397.75 356.799 396.446 358.348 394.758 360.129C394.528 360.362 394.375 360.594 394.375 360.749C394.375 360.904 394.452 360.981 394.682 360.981C395.449 360.981 396.369 360.594 397.52 359.819C401.34 357.527 403.762 355.275 404.784 353.093C410.114 359.464 413.321 367.668 413.321 376.622ZM345.639 396.381C345.558 396.012 345.518 395.674 345.518 395.366C345.518 392.036 348.816 389.093 355.412 386.537C362.008 383.982 370.215 382.278 380.032 381.349C379.649 379.258 377.962 375.773 374.894 370.894C371.826 366.015 370.292 362.065 370.292 359.122C370.292 355.173 372.439 351.688 376.734 348.745C381.03 345.802 385.631 344.253 390.617 344.176C391.749 344.129 392.847 344.153 393.91 344.245C388.751 341.483 382.856 339.918 376.595 339.918C356.311 339.918 339.868 356.351 339.868 376.622C339.868 383.897 341.986 390.677 345.639 396.381ZM356.946 402.258L358.097 402.258L358.02 402.181C363.082 402.181 367.837 400.709 372.209 397.689C376.581 394.669 379.112 390.642 379.802 385.531C371.749 387.157 365.23 389.248 360.168 391.803C355.106 394.359 352.575 396.76 352.575 399.083C352.575 401.174 354.032 402.258 356.946 402.258Z" fill="black"/>
<rect x="-1.48949" y="-1.51043" width="188.168" height="382.538" rx="25.5" transform="matrix(0.999976 0.00697701 -0.00698552 0.999976 285.02 186.809)" stroke="#343333" stroke-width="3"/>
</g>
</g>
<defs>
<filter id="filter0_d" x="99.5459" y="7.96509" width="553.481" height="746.487" filterUnits="userSpaceOnUse" color-interpolation-filters="sRGB">
<feFlood flood-opacity="0" result="BackgroundImageFix"/>
<feColorMatrix in="SourceAlpha" type="matrix" values="0 0 0 0 0 0 0 0 0 0 0 0 0 0 0 0 0 0 127 0"/>
<feOffset dy="4"/>
<feGaussianBlur stdDeviation="90"/>
<feColorMatrix type="matrix" values="0 0 0 0 0 0 0 0 0 0 0 0 0 0 0 0 0 0 1 0"/>
<feBlend mode="normal" in2="BackgroundImageFix" result="effect1_dropShadow"/>
<feBlend mode="normal" in="SourceGraphic" in2="effect1_dropShadow" result="shape"/>
</filter>
<clipPath id="clip0">
<rect width="759" height="754" fill="white" transform="translate(0.5)"/>
</clipPath>
<clipPath id="clip1">
<rect width="52.9711" height="52.9388" fill="white" transform="translate(665.666 479.475)"/>
</clipPath>
</defs>
</svg>
