<svg width="1003" height="997" viewBox="0 0 1003 997" fill="none" xmlns="http://www.w3.org/2000/svg">
<line x1="787.354" y1="209.354" x2="207.526" y2="789.181" stroke="#676767" stroke-dasharray="6 4"/>
<line x1="87" y1="498.5" x2="907" y2="498.5" stroke="#676767" stroke-dasharray="6 4"/>
<line x1="497.5" y1="89" x2="497.5" y2="909" stroke="#676767" stroke-dasharray="6 4"/>
<line x1="207.354" y1="208.646" x2="787.181" y2="788.474" stroke="#676767" stroke-dasharray="6 4"/>
<line x1="787.354" y1="209.354" x2="207.526" y2="789.181" stroke="#676767" stroke-dasharray="6 4"/>
<line x1="118.191" y1="341.538" x2="875.773" y2="655.338" stroke="#676767" stroke-dasharray="6 4"/>
<line x1="654.462" y1="120.191" x2="340.661" y2="877.773" stroke="#676767" stroke-dasharray="6 4"/>
<line x1="340.462" y1="119.809" x2="654.262" y2="877.39" stroke="#676767" stroke-dasharray="6 4"/>
<line x1="876.191" y1="342.462" x2="118.61" y2="656.262" stroke="#676767" stroke-dasharray="6 4"/>
<path fill-rule="evenodd" clip-rule="evenodd" d="M291.833 74C291.833 57.9178 304.918 44.8333 321 44.8333C337.082 44.8333 350.167 57.9178 350.167 74C350.167 90.0822 337.082 103.167 321 103.167C304.918 103.167 291.833 90.0822 291.833 74ZM331.146 86.7154C333.014 88.2284 335.583 84.9539 333.014 83.4489C324.876 78.6825 315.172 78.4394 306.189 80.5331C304.085 80.827 304.255 84.1459 306.421 84.1459C315.167 82.75 322.708 81.6489 331.146 86.7154ZM334.255 79.466C323.865 74.0812 316.625 74 305.838 76.3326C303.128 76.3326 302.957 72.5032 305.373 71.7858C315.651 69.1086 327.131 69.8778 336.394 75.3986C338.5 76.9166 337.447 80.7257 334.255 79.466ZM337.447 70.7334C340.351 72.9262 343.175 67.8227 340.125 66.0682C329.794 59.9455 315.083 59.0835 303.624 62.4554C300.784 63.3897 302.042 68.1666 304.321 67.8177C316.335 64.8661 327.605 64.7894 337.447 70.7334Z" fill="white"/>
<path fill-rule="evenodd" clip-rule="evenodd" d="M520.695 20.4661C523.98 21.2118 526.812 23.6004 527.406 26.8802C529.501 37.3573 529.386 47.6794 527.709 58.1993C527.109 61.6306 524.278 63.8677 520.998 64.6134C506.975 67.8015 485.798 67.5299 472.971 64.6134C469.691 63.8677 466.859 61.4792 466.259 58.1993C464.223 48.0199 464.469 37.0972 466.114 26.8802C466.708 23.4489 469.545 21.2118 472.825 20.4661C485.798 17.5177 506.975 17.3521 520.695 20.4661ZM506.975 42.5398L488.781 32.1001V52.9794L506.975 42.5398Z" fill="white"/>
<path fill-rule="evenodd" clip-rule="evenodd" d="M70.2794 317.806C67.1812 317.806 65.3743 315.448 65.3743 311.956C65.3743 305.086 71.5376 303.836 77.3691 303.836C77.3617 308.903 77.2334 317.806 70.2794 317.806ZM85.4975 325.248C84.9641 325.73 84.1908 325.761 83.5962 325.437C80.9114 323.211 80.4367 322.18 78.9667 320.062C71.5416 329.417 53.599 328.323 53.599 313.355C53.599 299.921 67.1666 297.333 77.364 297.381C77.364 295.111 77.7262 292.452 76.3866 290.481C73.5595 286.229 66.3015 288.72 65.3743 293.229C65.2365 293.957 64.7082 294.676 63.9732 294.715L56.1613 293.865C55.5003 293.722 54.7627 293.186 54.9567 292.18C56.7534 282.697 65.3182 279.833 72.9897 279.833C76.9123 279.833 81.9173 281.015 85.1325 283.85C90.4999 288.583 88.2231 303.836 88.685 310.292C88.685 314.072 90.2571 315.728 91.7271 317.768C92.2477 318.5 92.3575 319.375 91.7016 319.909C90.0504 321.289 87.1232 323.831 85.5179 325.266L85.4975 325.248ZM94.5804 330.321C78.6245 338.868 59.2913 337.109 44.728 326.429C44.021 325.914 43.5004 326.822 44.0874 327.491C56.9583 342.542 80.3243 346.27 95.4915 332.166C96.5276 331.204 95.6395 329.755 94.5804 330.321ZM96.2902 335.977C96.058 336.556 96.5557 336.793 97.0814 336.352C100.499 333.493 101.382 327.506 100.682 326.644C99.9882 325.786 94.0163 325.046 90.372 327.606C89.8105 327.999 89.9075 328.542 90.5302 328.466C92.5846 328.221 97.1529 327.67 97.9644 328.716C98.7785 329.762 97.0584 334.06 96.2902 335.977Z" fill="white"/>
<path d="M38.9999 464.833C22.8877 464.833 9.83325 477.888 9.83325 494C9.83325 510.112 22.8877 523.167 38.9999 523.167C55.1122 523.167 68.1666 510.112 68.1666 494C68.1666 477.888 55.1122 464.833 38.9999 464.833ZM44.6686 503.185H23.3816L33.343 484.827H54.63L44.6686 503.185Z" fill="white"/>
<path fill-rule="evenodd" clip-rule="evenodd" d="M925.542 307.856C933.595 307.856 940.144 314.405 940.144 322.458C940.144 330.511 933.595 337.061 925.542 337.061C917.489 337.061 910.939 330.511 910.939 322.458C910.939 314.405 917.489 307.856 925.542 307.856ZM919.974 330.468L933.547 322.115L919.974 314.459V330.468Z" fill="white"/>
<path fill-rule="evenodd" clip-rule="evenodd" d="M956.167 322.458C956.167 339.372 942.455 353.083 925.542 353.083C908.628 353.083 894.917 339.372 894.917 322.458C894.917 305.545 908.628 291.833 925.542 291.833C942.455 291.833 956.167 305.545 956.167 322.458ZM925.542 306.45C916.699 306.45 909.533 313.615 909.533 322.458C909.533 331.301 916.699 338.467 925.542 338.467C934.385 338.467 941.55 331.301 941.55 322.458C941.55 313.615 934.385 306.45 925.542 306.45Z" fill="white"/>
<path d="M938.898 695.25C939.893 695.251 940.515 694.057 940.018 693.102L914.213 643.467C913.716 642.512 912.473 642.511 911.975 643.465L893.759 678.396C893.261 679.351 893.882 680.545 894.876 680.546L904.859 680.553C905.321 680.553 905.747 680.281 905.978 679.838L911.96 668.367C912.459 667.411 913.701 667.413 914.198 668.369L920.576 680.637C921.073 681.593 920.451 682.786 919.456 682.785L907.713 682.776C907.251 682.776 906.824 683.049 906.593 683.492L901.596 693.074C901.099 694.029 901.719 695.223 902.714 695.223L938.898 695.25Z" fill="white"/>
<path fill-rule="evenodd" clip-rule="evenodd" d="M819.416 831.299C812.614 831.299 802.352 832.623 800.206 824.036C799.503 819.585 802.067 808.306 803.486 801.781C806.132 786.959 824.043 789.833 835.112 789.833C832.885 805.423 830.023 821.069 826.678 836.453C825.273 843.715 819.416 847.229 813.793 847.932C807.708 848.693 800.998 848.166 794.818 848.166H794.583C794.583 847.932 794.583 847.932 794.583 847.698C795.989 845.355 797.395 842.778 798.8 840.435C799.034 840.201 799.737 839.967 800.206 839.967C804.423 839.967 808.874 839.967 813.091 839.967C818.289 839.967 818.831 835.391 819.416 831.299ZM819.416 823.334C820.587 823.334 820.822 823.099 821.056 821.928C822.227 815.368 823.399 808.809 824.57 802.249C825.438 797.475 819.933 798.032 816.839 798.032C814.028 798.032 812.154 799.672 811.451 802.484C810.571 808.202 809.357 813.876 808.405 819.585C808.171 821.459 809.342 822.865 811.216 823.099C813.921 823.437 816.729 822.796 819.416 823.334Z" fill="white"/>
<path d="M665.411 955.167V934.35L651.5 897.016H658.493L668.745 925.803L680.538 891H686.967L671.841 934.588V955.167H665.411Z" fill="white"/>
<path d="M524.979 949.495C523.975 938.983 514.53 930.75 503.474 930.75H476.583V986.167H490.437C492.346 986.167 493.901 984.615 493.901 982.703V972.313H504.292C510.135 972.313 515.742 969.833 519.67 965.507C523.66 961.122 525.544 955.435 524.979 949.495Z" fill="white"/>
<path fill-rule="evenodd" clip-rule="evenodd" d="M294.964 939.916C294.087 939.746 294.028 940.645 294.028 941.254C294.028 949.427 300.417 949.025 307.525 948.999C308.246 948.997 308.608 948.144 308.193 947.559C304.564 942.772 299.6 941.339 294.964 939.916ZM328.601 907C327.214 907 318.69 906.373 318.953 907.969C321.91 925.938 314.471 943.487 312.9 946.926C311.849 949.556 314.161 934.619 300.999 907.49C297.5 906.125 294.028 909.615 294.028 914.614C294.028 916.031 294.028 919.638 294.028 920.622C306.147 929.24 309.765 941.229 310.681 948.016C310.859 949.333 311.252 948.999 312.997 948.999C314.494 948.999 314.714 949.116 315.011 948.11C316.838 941.923 322.458 929.987 336.161 922.868C336.161 921.468 336.161 916.219 336.161 914.614C336.161 910.065 333.079 907 328.601 907ZM339.514 946.619C336.915 953.732 329.046 953.201 322.748 953.201C314.535 953.201 303.333 953.201 296.415 952.34C289.296 949.755 289.813 941.931 289.813 935.628V914.614C290.208 911.959 289.813 906.057 296.415 903.659C300.066 902.334 325.208 903.209 329.583 903.209C329.583 903.209 336.875 903.208 339.514 909.38C341.25 916.334 339.923 945.5 339.514 946.619ZM344.167 910.499C342.708 900.291 333.299 898.833 329.583 898.833C320.29 898.833 298.618 898.247 294.262 899.829C290.809 901.083 288.09 903.793 286.832 907.234C285.106 911.958 285.833 927.572 285.833 936.829C285.833 946.086 285.8 953.099 294.262 956.169C299.865 958.202 329.583 957.167 332.5 957.166C339.514 956.169 342.099 952.206 343.357 948.765C344.356 945.613 344.356 942.685 344.356 936.829C344.356 927.572 344.451 912.492 344.167 910.499ZM335.266 938.48C329.457 940.417 323.352 942.238 318.459 947.479C317.728 948.363 318.658 948.999 319.061 948.999C326.273 948.999 336.161 950.676 336.161 941.254C336.161 940.631 336.576 938.094 335.266 938.48Z" fill="white"/>
<path d="M129.798 819.823C129.798 819.823 131.242 819.583 131.857 820.198C132.445 820.812 132.044 822.096 131.269 822.123C130.467 822.149 129.745 822.283 129.21 821.748C128.643 821.1 128.966 820.044 129.798 819.823ZM145.52 828.54C145.387 828.567 145.226 828.486 145.093 828.38C144.05 826.962 143.675 822.042 143.194 821.748C142.713 821.454 140.921 824.476 137.338 824.155C135.868 824.021 134.344 823.059 133.461 822.39C133.542 821.294 133.542 818.673 135.761 819.529C137.125 820.037 139.424 821.454 141.456 818.914C143.702 816.106 144.932 816.935 145.654 817.55C146.403 818.139 145.922 821.321 147.018 820.438C148.114 819.556 152.579 814.048 152.579 814.048C152.579 814.048 156.029 810.598 156.563 814.208C157.098 817.845 159.344 821.882 159.959 821.748C160.548 821.641 167.5 807.657 168.489 806.748C169.478 805.839 172.847 805.973 172.687 808.272C172.526 810.598 172.179 824.984 172.179 824.984C172.179 824.984 171.778 829.048 172.419 826.882C175.049 817.941 178.201 809.159 180.762 800.197C181.18 798.734 185.532 799.994 186.217 800.678C186.725 801.454 187.045 802.844 186.725 805.331C185.922 811.507 185.307 824.235 185.307 824.235C185.307 824.235 185.174 824.85 186.484 822.176C186.537 821.962 186.671 821.909 186.885 821.695C187.992 820.321 191.167 819.624 192.741 820.625C193.329 821.508 192.981 824.77 192.981 824.77C191.751 824.877 189.398 825.545 188.57 825.652C187.741 825.786 186.484 831.134 184.719 830.599C182.954 830.037 179.024 827.604 179.024 827.283C179.024 825.614 179.425 823.952 179.425 822.283C179.505 821.561 179.452 821.24 179.104 821.962C176.228 827.975 175.583 833.125 171.965 842.658C171.617 843.166 171.109 843.46 170.414 843.273C168.676 842.738 166.51 840.385 166.484 839.797C166.43 836.481 166.644 818.673 165.842 820.144C164.986 821.668 158.542 832.23 158.542 832.23C158.039 832.356 157.101 832.137 156.884 831.642C155.241 826.432 155.935 828.401 155.36 826.829C154.638 824.422 153.863 821.962 153.729 821.695C153.489 821.16 153.141 821.374 152.793 821.695C151.349 822.898 148.301 828.246 145.52 828.54Z" fill="white"/>
<path d="M68.002 660.911C65.1715 656.563 60.2666 653.667 54.699 653.667C45.9371 653.667 38.8333 660.788 38.8333 669.578C38.8333 674.52 41.506 679.371 45.0341 682.292C45.1798 682.465 54.0451 690.666 61.8587 697.887V686.221C61.8587 678.258 74 678.316 74 686.221V697.987L89.9647 682.896C93.8771 679.718 97.1666 675.155 97.1666 669.578C97.1666 660.788 90.0654 653.667 81.2994 653.667C75.7757 653.667 70.8431 656.615 68.002 660.911ZM52.1958 682.223C47.4581 678.013 45.0556 673.617 45.0556 669.158C45.0556 665.298 47.1741 661.05 50.4786 658.971C51.6805 658.217 52.8477 660.087 51.6471 660.84C48.9725 662.521 47.254 666.043 47.254 669.158C47.254 672.958 49.4076 676.799 53.6543 680.573C54.7315 681.532 53.2044 683.121 52.1958 682.223ZM82.3466 680.573C86.5928 676.799 88.7467 672.958 88.7467 669.158C88.7467 666.043 87.0281 662.521 84.3538 660.84C83.1531 660.087 84.3189 658.219 85.5223 658.971C88.8262 661.051 90.9442 665.298 90.9442 669.158C90.9442 673.617 88.5424 678.013 83.805 682.223C82.7436 683.17 81.2853 681.515 82.3466 680.573ZM59.3238 678.462C53.0564 674.942 51.8258 665.367 58.6897 661.746C59.946 661.081 60.9679 663.036 59.713 663.697C54.3697 666.518 55.6213 673.856 60.3982 676.538C61.6354 677.231 60.5655 679.152 59.3238 678.462ZM75.6021 676.538C80.3788 673.856 81.6305 666.517 76.2869 663.697C75.0314 663.036 76.0541 661.083 77.3114 661.746C84.1759 665.368 82.9429 674.942 76.6758 678.462C75.5072 679.113 74.3405 677.245 75.6021 676.538ZM63.2738 670.444C63.2738 667.804 65.4097 665.669 68.0371 665.669C70.6733 665.669 72.8043 667.804 72.8043 670.444C72.8043 673.083 70.6733 675.222 68.0371 675.222C65.4097 675.222 63.2738 673.083 63.2738 670.444Z" fill="white"/>
<path fill-rule="evenodd" clip-rule="evenodd" d="M662.4 61.419C670.546 49.1224 689.197 55.1521 690.4 69.4398C705.917 67.7085 707.406 91.0414 692.5 91.0414H662.4V61.419ZM654 62.1481C654.842 62 655.821 61.8747 656.8 61.8747V91.0414H654V62.1481ZM658.2 61.8747V91.0414H661V62.6039C660.158 62.3133 659.179 62.0228 658.2 61.8747ZM649.8 64.0622C650.642 63.4811 651.621 63.0425 652.6 62.6039V91.0414H649.8V64.0622ZM648.4 65.2471C647.279 66.2668 646.3 67.5713 645.6 69.0296V91.0414H648.4V65.2471ZM641.4 70.7614C642.225 70.4676 643.393 70.4774 644.2 70.7614V91.0414C643.316 91.0414 642.246 91.2021 641.4 90.9046V70.7614ZM640 71.0804C639.021 71.371 638.042 71.8096 637.2 72.5388V89.1273C638.042 89.7084 639.021 90.2951 640 90.5856V71.0804ZM635.8 87.988V73.6781C632.151 77.8009 632.151 83.8651 635.8 87.988Z" fill="white"/>
<path d="M796.73 155.667C793.75 158.583 786.693 165.672 785 167.379C788.891 171.252 792.766 175.145 796.658 179.018C800.531 175.162 804.387 171.271 808.261 167.415C805.417 164.417 798.613 157.577 796.73 155.667Z" fill="white"/>
<path d="M819.937 155.667C816.117 159.613 812.117 163.432 808.315 167.397C812.243 171.234 816.081 175.162 819.991 179.018C823.07 175.953 825.833 173.167 831.667 167.288C830.029 165.689 822.917 158.583 819.937 155.667Z" fill="white"/>
<path d="M843.288 155.667C845.77 158.129 850.625 162.958 855 167.415C851.072 171.234 847.27 175.199 843.324 179.018C840.418 176.112 837.5 173.167 831.685 167.288C835.604 163.477 839.513 159.623 843.288 155.667Z" fill="white"/>
<path d="M808.37 190.766C812.255 194.598 815.961 198.673 820.009 202.333C825.833 196.5 822.917 199.417 831.666 190.64C828.444 187.462 822.917 181.917 819.955 179.036C816.599 182.408 817.083 181.917 808.37 190.766Z" fill="white"/>
<path fill-rule="evenodd" clip-rule="evenodd" d="M986.974 472.749V469.583H999.635V472.749H986.974ZM958.487 477.496V474.331H971.148V477.496H958.487ZM986.974 474.331V477.496H999.635V474.331H986.974ZM958.487 482.244V479.079H971.148V482.244H958.487ZM986.974 479.079V482.244H999.635V479.079H986.974ZM930 486.992V483.827H942.661V486.992H930ZM958.487 483.827V486.992H971.148V483.827H958.487ZM972.73 486.992V483.827H985.391V486.992H972.73ZM986.974 483.827V486.992H999.635V483.827H986.974ZM930 491.74V488.575H942.661V491.74H930ZM958.487 488.575V491.74H971.148V488.575H958.487ZM972.73 491.74V488.575H985.391V491.74H972.73ZM986.974 488.575V491.74H999.635V488.575H986.974ZM930 496.488V493.322H942.661V496.488H930ZM944.243 493.322V496.488H956.904V493.322H944.243ZM958.487 496.488V493.322H971.148V496.488H958.487ZM972.73 493.322V496.488H985.391V493.322H972.73ZM986.974 496.488V493.322H999.635V496.488H986.974ZM930 498.07V501.236H942.661V498.07H930ZM944.243 501.236V498.07H956.904V501.236H944.243ZM958.487 498.07V501.236H971.148V498.07H958.487ZM972.73 501.236V498.07H985.391V501.236H972.73ZM986.974 498.07V501.236H999.635V498.07H986.974ZM930 505.983V502.818H942.661V505.983H930ZM944.243 502.818V505.983H956.904V502.818H944.243ZM958.487 505.983V502.818H971.148V505.983H958.487ZM972.73 502.818V505.983H985.391V502.818H972.73ZM986.974 505.983V502.818H999.635V505.983H986.974Z" fill="white"/>
<path fill-rule="evenodd" clip-rule="evenodd" d="M172.192 146.734C179.511 146.965 185.65 139 184.622 132C177.786 132.469 170.88 139.652 172.192 146.734ZM195.407 184.364C197.26 181.553 197.946 180.123 199.385 176.936C188.938 172.987 187.255 158.215 197.598 152.554C194.439 148.615 190.01 146.339 185.835 146.339C180.297 146.339 177.965 148.972 174.129 148.972C170.17 148.972 167.161 146.349 162.385 146.349C157.683 146.349 152.681 149.207 149.522 154.078C145.055 160.942 145.817 173.852 153.048 184.862C155.633 188.783 159.084 193.212 163.588 193.25C165.457 193.267 166.703 192.714 168.05 192.116C172.108 190.314 176.242 190.249 180.293 192.102C181.603 192.701 182.819 193.258 184.669 193.24C189.183 193.212 192.831 188.304 195.407 184.364Z" fill="white"/>
<g filter="url(#filter0_d)">
<rect x="376" y="247" width="244.695" height="501.856" rx="24" transform="rotate(0.4 376 247)" fill="black"/>
<path fill-rule="evenodd" clip-rule="evenodd" d="M497 549C524.614 549 547 526.614 547 499C547 487.318 542.994 476.572 536.28 468.06C535.012 471.18 531.611 474.407 526.078 477.694C524.494 478.75 523.228 479.278 522.172 479.278C521.855 479.278 521.75 479.172 521.75 478.961C521.75 478.75 521.961 478.433 522.278 478.117C524.6 475.689 526.394 473.578 527.555 471.889C528.717 470.2 529.35 468.511 529.35 466.928C529.35 464.289 527.028 463.022 522.278 463.022C517.422 463.022 512.989 464.606 509.083 467.772C505.178 470.939 503.172 474.528 503.172 478.644C503.172 481.917 504.861 486.667 508.344 492.894C511.828 499.122 513.939 503.556 514.678 506.194H517.739H520.905C530.828 506.194 535.789 506.828 535.789 508.2C535.789 508.622 535.05 508.939 533.572 509.256C528.189 509.467 522.172 509.889 515.417 510.628C515.522 510.944 515.522 511.472 515.522 512.211C515.522 517.067 514.361 521.5 512.039 525.511C509.717 529.522 506.761 532.689 503.067 535.117C499.372 537.544 495.361 539.444 491.033 540.817C486.705 542.189 482.272 542.822 477.733 542.822L476.889 542.928C475.375 542.928 473.928 542.827 472.541 542.62C479.772 546.683 488.115 549 497 549ZM454.549 525.431C455.002 521.184 459.529 517.411 468.128 514.111C477.205 510.628 488.5 508.306 502.011 507.039C501.483 504.189 499.161 499.439 494.939 492.789C490.717 486.139 488.605 480.756 488.605 476.744C488.605 471.361 491.561 466.611 497.472 462.6C503.383 458.589 509.717 456.478 516.578 456.372C519.134 456.268 521.562 456.421 523.86 456.82C516.102 451.869 506.886 449 497 449C469.386 449 447 471.386 447 499C447 508.704 449.765 517.763 454.549 525.431ZM470.239 535.539H471.822L471.717 535.433C478.683 535.433 485.228 533.428 491.244 529.311C497.261 525.194 500.744 519.706 501.694 512.739C490.611 514.956 481.639 517.806 474.672 521.289C467.705 524.772 464.222 528.044 464.222 531.211C464.222 534.061 466.228 535.539 470.239 535.539Z" fill="white"/>
<rect x="374.511" y="245.49" width="247.695" height="504.856" rx="25.5" transform="rotate(0.4 374.511 245.49)" stroke="#343333" stroke-width="3"/>
</g>
<defs>
<filter id="filter0_d" x="189.663" y="68.167" width="613.859" height="869.218" filterUnits="userSpaceOnUse" color-interpolation-filters="sRGB">
<feFlood flood-opacity="0" result="BackgroundImageFix"/>
<feColorMatrix in="SourceAlpha" type="matrix" values="0 0 0 0 0 0 0 0 0 0 0 0 0 0 0 0 0 0 127 0"/>
<feOffset dy="4"/>
<feGaussianBlur stdDeviation="90"/>
<feColorMatrix type="matrix" values="0 0 0 0 0 0 0 0 0 0 0 0 0 0 0 0 0 0 1 0"/>
<feBlend mode="normal" in2="BackgroundImageFix" result="effect1_dropShadow"/>
<feBlend mode="normal" in="SourceGraphic" in2="effect1_dropShadow" result="shape"/>
</filter>
</defs>
</svg>
